<svg width="314" height="273" viewBox="0 0 314 273" fill="none" xmlns="http://www.w3.org/2000/svg">
<path fill-rule="evenodd" clip-rule="evenodd" d="M151.248 267.286C147.567 270.945 142.577 273 137.373 273C132.169 273 127.178 270.945 123.498 267.286L5.74601 150.181C2.06684 146.521 0 141.557 0 136.382C0 131.207 2.06684 126.243 5.74601 122.583L123.498 5.47877C127.199 1.92352 132.156 -0.0437311 137.302 0.00073781C142.448 0.0452067 147.37 2.09783 151.009 5.71652C154.647 9.33521 156.711 14.2304 156.756 19.3478C156.801 24.4652 154.823 29.3954 151.248 33.0764L66.9964 116.865H294.375C299.58 116.865 304.571 118.921 308.252 122.581C311.932 126.242 314 131.206 314 136.382C314 141.559 311.932 146.523 308.252 150.183C304.571 153.843 299.58 155.9 294.375 155.9H66.9964L151.248 239.688C154.927 243.348 156.994 248.311 156.994 253.487C156.994 258.662 154.927 263.626 151.248 267.286Z" fill="#252525"/>
</svg>
