<svg width="187" height="268" viewBox="0 0 187 268" fill="none" xmlns="http://www.w3.org/2000/svg">
<g clip-path="url(#clip0_67_271)">
<path fill-rule="evenodd" clip-rule="evenodd" d="M10.6682 108.681C21.1588 67.8644 46.3144 39.2726 77 23.2455C113.302 4.28506 157.344 2.90962 194 19.6822C227.668 35.0872 255.105 65.8016 264.594 112.261C265.604 117.207 266.411 122.33 267 127.633L194 127.633C180.5 65.6327 96 61.1327 77 127.633L7 127.633C7.8808 121.048 9.11345 114.73 10.6682 108.681ZM262.464 173.836C251.658 211.747 226.993 238.51 197 253.543C160.765 271.704 116.753 272.745 80 255.641C48.296 240.886 21.9944 212.629 10.7482 170.211C9.46451 165.37 8.37701 160.344 7.5 155.132H80C93.5 217.132 178 221.632 197 155.132L266.5 155.132C265.519 161.641 264.163 167.876 262.464 173.836ZM136.5 184.632C159.696 184.632 178.5 165.381 178.5 141.632C178.5 117.884 159.696 98.6324 136.5 98.6324C113.304 98.6324 94.5 117.884 94.5 141.632C94.5 165.381 113.304 184.632 136.5 184.632Z" fill="#D9D9D9" fill-opacity="0.3"/>
</g>
<defs>
<clipPath id="clip0_67_271">
<rect width="187" height="268" fill="white"/>
</clipPath>
</defs>
</svg>
