<svg width="690" height="882" viewBox="0 0 690 882" fill="none" xmlns="http://www.w3.org/2000/svg">
<g clip-path="url(#clip0_17_498)">
<path d="M105.739 220.017C121.424 166.834 150.939 105.138 197.242 50.1443C266.4 -31.9941 371.6 -97.7847 524.74 -97.9995C657.005 -95.1755 759.6 -51.5562 833.175 17.0975C889.03 69.2162 930.836 138.289 955.337 220.909H879.901C824.294 73.0301 689.101 -16.5311 549.269 -25.4179C400.994 -34.8413 254.232 45.8939 186.705 220.72C159.311 220.552 131.101 220.29 105.739 220.017Z" stroke="#F3F3F3" stroke-width="150"/>
<path d="M959.261 465.983C943.576 519.166 914.061 580.862 867.758 635.856C798.6 717.994 693.4 783.785 540.26 783.999C407.995 781.175 305.4 737.556 231.825 668.902C175.97 616.784 134.164 547.711 109.663 465.091H185.099C240.706 612.97 375.899 702.531 515.731 711.418C664.006 720.841 810.768 640.106 878.295 465.28C905.689 465.448 933.899 465.71 959.261 465.983Z" stroke="#F3F3F3" stroke-width="150"/>
<ellipse cx="533.502" cy="344.002" rx="156.152" ry="156.303" fill="#F3F3F3"/>
</g>
<defs>
<clipPath id="clip0_17_498">
<rect width="690" height="882" fill="white"/>
</clipPath>
</defs>
</svg>
