<svg width="158" height="113" viewBox="0 0 158 113" fill="none" xmlns="http://www.w3.org/2000/svg">
<rect width="158" height="113" rx="20" fill="#5CB1F9"/>
<rect width="158" height="113" rx="20" fill="white" fill-opacity="0.2"/>
<path fill-rule="evenodd" clip-rule="evenodd" d="M20 0C8.95431 0 0 8.95431 0 20V93C0 104.046 8.9543 113 20 113H103.703C95.8967 107.476 90.7247 99.0154 88.5834 88.8077C88.354 87.714 88.1594 86.6003 88 85.468H104.528C106.93 96.9367 116.738 103.685 126.517 103.662C126.626 103.662 126.736 103.661 126.846 103.659C135.577 103.503 144.219 97.9261 147.472 85.468C150.717 85.468 154.737 85.5032 158 85.5392V78.532H147.472C145.07 67.0633 135.262 60.3147 125.483 60.3377C125.374 60.3379 125.264 60.339 125.154 60.341C116.423 60.4974 107.781 66.0739 104.528 78.532C97.8874 78.532 88 78.3845 88 78.3845C88.0473 77.1546 88.2126 75.795 88.502 74.3474C90.0372 66.6708 95.0659 56.5205 104.528 50.1247C109.981 46.4389 116.906 44 125.483 44C134.151 44.1745 141.535 46.4817 147.472 50.4335C151.755 53.2843 155.284 56.9909 158 61.3701V20C158 8.95431 149.046 0 138 0H20ZM126.074 93.5845C132.431 93.5845 137.585 88.431 137.585 82.0738C137.585 75.7166 132.431 70.5631 126.074 70.5631C119.717 70.5631 114.563 75.7166 114.563 82.0738C114.563 88.431 119.717 93.5845 126.074 93.5845Z" fill="#5CB1F9"/>
</svg>
