<svg width="28" height="24" viewBox="0 0 28 24" fill="none" xmlns="http://www.w3.org/2000/svg">
<path fill-rule="evenodd" clip-rule="evenodd" d="M2 13.3333C2.53043 13.3333 3.03914 13.544 3.41421 13.9191C3.78929 14.2942 4 14.8029 4 15.3333C4 15.8638 3.78929 16.3725 3.41421 16.7475C3.03914 17.1226 2.53043 17.3333 2 17.3333C1.46957 17.3333 0.960859 17.1226 0.585786 16.7475C0.210714 16.3725 0 15.8638 0 15.3333C0 14.8029 0.210714 14.2942 0.585786 13.9191C0.960859 13.544 1.46957 13.3333 2 13.3333ZM25.9987 14C26.736 14 27.3333 14.592 27.3333 15.3333C27.3333 16.07 26.74 16.6667 25.9987 16.6667H7.33467C7.15936 16.6672 6.98568 16.6331 6.8236 16.5663C6.66152 16.4995 6.51423 16.4013 6.39021 16.2774C6.26619 16.1535 6.16787 16.0063 6.1009 15.8443C6.03394 15.6823 5.99965 15.5086 6 15.3333C6 14.5967 6.59333 14 7.33467 14H25.9987ZM2 6.66667C2.53043 6.66667 3.03914 6.87738 3.41421 7.25245C3.78929 7.62753 4 8.13623 4 8.66667C4 9.1971 3.78929 9.70581 3.41421 10.0809C3.03914 10.456 2.53043 10.6667 2 10.6667C1.46957 10.6667 0.960859 10.456 0.585786 10.0809C0.210714 9.70581 0 9.1971 0 8.66667C0 8.13623 0.210714 7.62753 0.585786 7.25245C0.960859 6.87738 1.46957 6.66667 2 6.66667ZM25.9987 7.33333C26.736 7.33333 27.3333 7.92533 27.3333 8.66667C27.3333 9.40333 26.74 10 25.9987 10H7.33467C7.15936 10.0005 6.98568 9.96641 6.8236 9.89961C6.66152 9.8328 6.51423 9.73463 6.39021 9.61073C6.26619 9.48683 6.16787 9.33965 6.1009 9.17764C6.03394 9.01562 5.99965 8.84197 6 8.66667C6 7.93 6.59333 7.33333 7.33467 7.33333H25.9987ZM2 0C2.53043 0 3.03914 0.210713 3.41421 0.585786C3.78929 0.960859 4 1.46957 4 2C4 2.53043 3.78929 3.03914 3.41421 3.41421C3.03914 3.78929 2.53043 4 2 4C1.46957 4 0.960859 3.78929 0.585786 3.41421C0.210714 3.03914 0 2.53043 0 2C0 1.46957 0.210714 0.960859 0.585786 0.585786C0.960859 0.210713 1.46957 0 2 0ZM25.9987 0.666667C26.736 0.666667 27.3333 1.25867 27.3333 2C27.3333 2.73667 26.74 3.33333 25.9987 3.33333H7.33467C7.15936 3.33386 6.98568 3.29974 6.8236 3.23294C6.66152 3.16614 6.51423 3.06797 6.39021 2.94407C6.26619 2.82017 6.16787 2.67298 6.1009 2.51097C6.03394 2.34896 5.99965 2.17531 6 2C6 1.26333 6.59333 0.666667 7.33467 0.666667H25.9987Z" fill="black"/>
<path fill-rule="evenodd" clip-rule="evenodd" d="M2 20C2.53043 20 3.03914 20.2107 3.41421 20.5858C3.78929 20.9609 4 21.4696 4 22C4 22.5304 3.78929 23.0391 3.41421 23.4142C3.03914 23.7893 2.53043 24 2 24C1.46957 24 0.960859 23.7893 0.585786 23.4142C0.210714 23.0391 0 22.5304 0 22C0 21.4696 0.210714 20.9609 0.585786 20.5858C0.960859 20.2107 1.46957 20 2 20ZM25.9987 20.6667C26.736 20.6667 27.3333 21.2587 27.3333 22C27.3333 22.7367 26.74 23.3333 25.9987 23.3333H7.33467C7.15936 23.3339 6.98568 23.2997 6.8236 23.2329C6.66152 23.1661 6.51423 23.068 6.39021 22.9441C6.26619 22.8202 6.16787 22.673 6.1009 22.511C6.03394 22.349 5.99965 22.1753 6 22C6 21.2633 6.59333 20.6667 7.33467 20.6667H25.9987Z" fill="black"/>
</svg>
