<svg width="218" height="212" viewBox="0 0 218 212" fill="none" xmlns="http://www.w3.org/2000/svg">
<mask id="path-1-inside-1_5_33" fill="white">
<path d="M55.9995 71C33.5 71 0 70.5 0 70.5C1.50049 31.5 38 -46 127 -46C201.5 -44.5 248 3.5 257.499 71H201.5C186 -3 79.5 -19 55.9995 71Z"/>
</mask>
<path d="M0 70.5L-99.9261 66.6554L-103.862 168.961L-1.49233 170.489L0 70.5ZM55.9995 71V171H133.241L152.755 96.2645L55.9995 71ZM201.5 71L103.623 91.5005L120.275 171H201.5V71ZM257.499 71V171H372.558L356.524 57.064L257.499 71ZM127 -46L129.013 -145.98L128.006 -146L126.999 -146L127 -46ZM0 70.5C-1.49233 170.489 -1.49171 170.489 -1.49096 170.489C-1.49054 170.489 -1.48967 170.489 -1.48883 170.489C-1.48716 170.489 -1.48497 170.489 -1.48228 170.489C-1.47689 170.489 -1.46947 170.489 -1.46005 170.489C-1.4412 170.49 -1.41431 170.49 -1.37955 170.491C-1.31004 170.492 -1.20905 170.493 -1.07794 170.495C-0.815742 170.499 -0.433004 170.504 0.0593724 170.511C1.04398 170.525 2.46789 170.545 4.24381 170.569C7.79346 170.617 12.7609 170.68 18.4452 170.744C29.7178 170.87 44.1717 171 55.9995 171V-29C45.3279 -29 31.7819 -29.1197 20.6797 -29.2438C15.1766 -29.3053 10.3628 -29.3668 6.92805 -29.4129C5.21179 -29.4359 3.84273 -29.4551 2.90742 -29.4684C2.43984 -29.475 2.08088 -29.4802 1.84137 -29.4837C1.72162 -29.4855 1.63175 -29.4868 1.57312 -29.4877C1.54381 -29.4881 1.5223 -29.4884 1.50878 -29.4886C1.50202 -29.4887 1.49725 -29.4888 1.4945 -29.4888C1.49313 -29.4889 1.49226 -29.4889 1.49189 -29.4889C1.49171 -29.4889 1.49182 -29.4889 1.49173 -29.4889C1.49196 -29.4889 1.49233 -29.4889 0 70.5ZM152.755 96.2645C153.631 92.9104 153.069 97.7499 145.902 103.047C139.117 108.061 131.439 109.682 125.413 109.299C114.821 108.626 105.649 101.172 103.623 91.5005L299.376 50.4995C281.85 -33.172 211.679 -85.6265 138.086 -90.299C57.0206 -95.4461 -17.371 -43.8237 -40.7564 45.7354L152.755 96.2645ZM201.5 171H257.499V-29H201.5V171ZM126.999 -146C49.7045 -146 -8.58286 -110.953 -45.7781 -66.8187C-80.0184 -26.1908 -98.2879 24.0764 -99.9261 66.6554L99.9261 74.3446C99.7975 77.6857 99.367 76.6459 101 72.5008C102.44 68.846 104.595 65.1048 107.153 62.0687C109.57 59.2012 111.894 57.4694 114.067 56.3971C115.961 55.4628 119.751 54 127 54L126.999 -146ZM356.524 57.064C349.091 4.25351 326.191 -46.8233 284.813 -85.3967C242.857 -124.508 188.255 -144.787 129.013 -145.98L124.987 53.9797C140.245 54.2869 146.143 58.7581 148.437 60.8967C151.308 63.5733 156.408 70.2465 158.475 84.936L356.524 57.064Z" fill="#F3F3F3" mask="url(#path-1-inside-1_5_33)"/>
<mask id="path-3-inside-2_5_33" fill="white">
<path d="M201.5 94.5C224 94.5 257.5 95 257.5 95C255.999 134 219.5 211.5 130.5 211.5C55.9995 210 9.49951 162 3.05176e-05 94.5H56C71.4995 168.5 178 184.5 201.5 94.5Z"/>
</mask>
<path d="M257.5 95L357.426 98.8446L361.362 -3.461L258.992 -4.98886L257.5 95ZM201.5 94.5L201.5 -5.49998L124.259 -5.49998L104.744 69.2355L201.5 94.5ZM56 94.5L153.876 73.9995L137.225 -5.49998H56V94.5ZM3.05176e-05 94.5V-5.49998L-115.059 -5.49998L-99.0242 108.436L3.05176e-05 94.5ZM130.5 211.5L128.487 311.48L129.493 311.5L130.5 311.5L130.5 211.5ZM257.5 95C258.992 -4.98886 258.991 -4.98887 258.99 -4.98888C258.99 -4.98889 258.989 -4.9889 258.988 -4.98892C258.987 -4.98894 258.984 -4.98897 258.982 -4.98901C258.976 -4.98909 258.969 -4.9892 258.96 -4.98934C258.941 -4.98962 258.914 -4.99002 258.879 -4.99054C258.81 -4.99156 258.709 -4.99305 258.577 -4.99496C258.315 -4.99879 257.933 -5.00433 257.44 -5.01134C256.456 -5.02537 255.032 -5.04528 253.256 -5.06912C249.706 -5.11676 244.739 -5.18024 239.054 -5.24375C227.782 -5.3697 213.328 -5.49998 201.5 -5.49998L201.5 194.5C212.172 194.5 225.718 194.62 236.82 194.744C242.323 194.805 247.137 194.867 250.571 194.913C252.288 194.936 253.657 194.955 254.592 194.968C255.06 194.975 255.419 194.98 255.658 194.984C255.778 194.985 255.868 194.987 255.926 194.988C255.956 194.988 255.977 194.988 255.991 194.989C255.997 194.989 256.002 194.989 256.005 194.989C256.006 194.989 256.007 194.989 256.008 194.989C256.008 194.989 256.008 194.989 256.008 194.989C256.008 194.989 256.007 194.989 257.5 95ZM104.744 69.2355C103.868 72.5896 104.43 67.7501 111.597 62.4534C118.382 57.4392 126.061 55.8184 132.086 56.201C142.679 56.8735 151.85 64.328 153.876 73.9995L-41.8761 115.001C-24.3509 198.672 45.8206 251.127 119.413 255.799C200.479 260.946 274.871 209.324 298.256 119.765L104.744 69.2355ZM56 -5.49998H3.05176e-05V194.5H56L56 -5.49998ZM130.5 311.5C207.795 311.5 266.082 276.453 303.278 232.319C337.518 191.691 355.787 141.424 357.426 98.8446L157.573 91.1554C157.702 87.8143 158.132 88.8541 156.499 92.9992C155.059 96.654 152.905 100.395 150.346 103.431C147.929 106.299 145.606 108.031 143.432 109.103C141.539 110.037 137.749 111.5 130.5 111.5L130.5 311.5ZM-99.0242 108.436C-91.592 161.246 -68.6918 212.323 -27.313 250.897C14.6429 290.008 69.2445 310.287 128.487 311.48L132.513 111.52C117.255 111.213 111.356 106.742 109.062 104.603C106.191 101.927 101.092 95.2535 99.0242 80.564L-99.0242 108.436Z" fill="#F3F3F3" mask="url(#path-3-inside-2_5_33)"/>
<circle cx="129" cy="83" r="39" fill="#F3F3F3"/>
</svg>
