<svg width="260" height="260" viewBox="0 0 260 260" fill="none" xmlns="http://www.w3.org/2000/svg">
<mask id="path-1-inside-1_65_265" fill="white">
<path d="M70 119.633L0 119.633C21 -37.3678 242 -42.3678 260 119.633L187 119.633C173.5 57.6327 89 53.1327 70 119.633Z"/>
</mask>
<path d="M0 119.633L-198.235 93.1174L-228.533 319.633L-2.17983e-05 319.633L0 119.633ZM70 119.633L70 319.633L220.86 319.633L262.305 174.577L70 119.633ZM187 119.633L-8.42105 162.184L25.8621 319.633L187 319.633L187 119.633ZM260 119.633L260 319.633L483.453 319.633L458.777 97.5465L260 119.633ZM-2.17983e-05 319.633L70 319.633L70 -80.3672L2.17983e-05 -80.3672L-2.17983e-05 319.633ZM262.305 174.577C246.81 228.808 191.814 272.863 126.097 271.395C63.7637 270.003 5.49822 226.11 -8.42105 162.184L382.421 77.0815C355.002 -48.8442 247.736 -125.988 135.028 -128.505C18.9358 -131.098 -87.8101 -56.043 -122.305 64.6886L262.305 174.577ZM187 319.633L260 319.633L260 -80.3672L187 -80.3672L187 319.633ZM458.777 97.5465C437.461 -94.2968 282.805 -201.58 129.046 -199.982C-20.4478 -198.428 -173.265 -93.5633 -198.235 93.1174L198.235 146.148C197.043 155.053 190.721 171.116 175.197 184.088C161.634 195.422 146.505 199.858 133.204 199.997C119.801 200.136 102.149 195.873 85.8913 182.179C67.5322 166.716 61.9849 148.574 61.2232 141.719L458.777 97.5465Z" fill="white" fill-opacity="0.15" mask="url(#path-1-inside-1_65_265)"/>
<mask id="path-3-inside-2_65_265" fill="white">
<path d="M190 147.132L259.5 147.132C237.5 293.132 26.5 301.632 0.5 147.132H73C86.5 209.132 171 213.632 190 147.132Z"/>
</mask>
<path d="M259.5 147.132L457.267 176.933L491.895 -52.8679L259.5 -52.8678L259.5 147.132ZM190 147.132L190 -52.8678L39.1397 -52.8678L-2.3048 92.188L190 147.132ZM73 147.132L268.421 104.581L234.138 -52.8678H73L73 147.132ZM0.5 147.132L0.5 -52.8678H-235.969L-196.727 180.322L0.5 147.132ZM259.5 -52.8678L190 -52.8678L190 347.132L259.5 347.132L259.5 -52.8678ZM-2.3048 92.188C13.1899 37.9565 68.1858 -6.09803 133.903 -4.6304C196.236 -3.23834 254.502 40.6553 268.421 104.581L-122.421 189.684C-95.0018 315.609 12.2637 392.753 124.972 395.27C241.064 397.863 347.81 322.808 382.305 202.076L-2.3048 92.188ZM73 -52.8678L0.5 -52.8678L0.5 347.132H73L73 -52.8678ZM-196.727 180.322C-165.687 364.772 -12.6293 462.459 135.116 459.787C278.091 457.201 429.826 359.043 457.267 176.933L61.7326 117.332C63.6183 104.818 71.6934 87.8989 87.2955 75.2234C100.948 64.1321 115.559 60.0753 127.884 59.8525C140.391 59.6263 156.752 63.3022 172.257 75.4612C189.776 89.1986 196.405 106.09 197.727 113.942L-196.727 180.322Z" fill="white" fill-opacity="0.15" mask="url(#path-3-inside-2_65_265)"/>
<ellipse cx="129.5" cy="133.632" rx="42" ry="43" fill="white" fill-opacity="0.15"/>
</svg>
